<svg width="29" height="34" viewBox="0 0 29 34" fill="none" xmlns="http://www.w3.org/2000/svg">
<path d="M29.001 5.12107V18.3277C29.001 18.9588 28.7513 19.5617 28.3038 20.0068L20.2584 28.0513L14.4033 21.4221L28.9986 5.11871L29.001 5.12107Z" fill="#E5E5E5"/>
<path d="M20.2667 28.0466L14.1949 34L8.43876 28.0278L0.661824 19.9573C0.237884 19.517 0 18.9306 0 18.3183L0.0400419 5.12344L14.3881 21.3821L20.2243 27.9948L20.269 28.0443L20.2667 28.0466Z" fill="#505050"/>
<path opacity="0.23" d="M14.4033 21.4241L15.5432 20.1524L20.2655 28.0463" fill="black"/>
<path d="M13.9697 19.7877L16.65 11.4724L21.2403 9.92279L22.2978 7.12745L24.2715 2.46228L24.978 0.88916L19.8225 8.10476L14.7823 9.69436L13.9697 19.7877Z" fill="#FF5906"/>
<path d="M24.978 0.88916L22.6322 5.01505L21.8809 8.22722L24.978 0.88916Z" fill="#EAEAEA"/>
</svg>
