<svg width="25" height="24" viewBox="0 0 25 24" fill="none" xmlns="http://www.w3.org/2000/svg">
<path d="M20.8822 10.875L19.251 9.24488V5.25C19.251 4.63125 18.7447 4.125 18.126 4.125H17.001C16.3822 4.125 15.876 4.63125 15.876 5.25V5.87212L13.626 3.62438C13.3189 3.33413 13.0376 3 12.501 3C11.9644 3 11.6831 3.33413 11.376 3.62438L4.11973 10.875C3.76873 11.2406 3.50098 11.5073 3.50098 12C3.50098 12.6334 3.98698 13.125 4.62598 13.125H5.75098V19.875C5.75098 20.4938 6.25723 21 6.87598 21H9.12598C9.7473 21 10.251 20.4963 10.251 19.875V15.375C10.251 14.7562 10.7572 14.25 11.376 14.25H13.626C14.2447 14.25 14.751 14.7562 14.751 15.375V19.875C14.751 20.4963 14.6922 21 15.3135 21H18.126C18.7447 21 19.251 20.4938 19.251 19.875V13.125H20.376C21.015 13.125 21.501 12.6334 21.501 12C21.501 11.5073 21.2332 11.2406 20.8822 10.875Z" stroke="white" stroke-width="2" stroke-linejoin="round"/>
</svg>
