<svg width="25" height="24" viewBox="0 0 25 24" fill="none" xmlns="http://www.w3.org/2000/svg">
<path fill-rule="evenodd" clip-rule="evenodd" d="M14.1768 4.31627C13.7493 2.56124 11.2517 2.56124 10.8242 4.31627C10.7604 4.57999 10.6352 4.82492 10.4588 5.03112C10.2824 5.23732 10.0599 5.39897 9.80923 5.50291C9.55859 5.60684 9.28694 5.65014 9.01641 5.62927C8.74587 5.60839 8.48409 5.52394 8.25236 5.38279C6.70881 4.44227 4.9425 6.20855 5.88303 7.75207C6.49055 8.74884 5.95166 10.0494 4.81762 10.325C3.06144 10.7514 3.06144 13.25 4.81762 13.6753C5.08142 13.7392 5.32639 13.8645 5.5326 14.041C5.7388 14.2175 5.9004 14.4402 6.00424 14.691C6.10808 14.9418 6.15123 15.2135 6.13017 15.4841C6.1091 15.7547 6.02443 16.0165 5.88303 16.2482C4.9425 17.7917 6.70881 19.558 8.25236 18.6175C8.48404 18.4761 8.74585 18.3914 9.01646 18.3704C9.28707 18.3493 9.55883 18.3924 9.80961 18.4963C10.0604 18.6001 10.2831 18.7617 10.4596 18.9679C10.6361 19.1741 10.7614 19.4191 10.8253 19.6829C11.2517 21.439 13.7504 21.439 14.1757 19.6829C14.2398 19.4192 14.3652 19.1744 14.5418 18.9684C14.7183 18.7623 14.941 18.6008 15.1917 18.497C15.4424 18.3932 15.714 18.35 15.9846 18.3709C16.2551 18.3919 16.5169 18.4764 16.7486 18.6175C18.2922 19.558 20.0585 17.7917 19.1179 16.2482C18.9768 16.0165 18.8923 15.7547 18.8714 15.4842C18.8505 15.2136 18.8936 14.942 18.9975 14.6913C19.1013 14.4406 19.2628 14.2179 19.4688 14.0414C19.6749 13.8648 19.9197 13.7394 20.1834 13.6753C21.9395 13.2489 21.9395 10.7502 20.1834 10.325C19.9196 10.2611 19.6746 10.1358 19.4684 9.95928C19.2622 9.78278 19.1006 9.56007 18.9967 9.3093C18.8929 9.05853 18.8497 8.78677 18.8708 8.51617C18.8919 8.24556 18.9766 7.98376 19.1179 7.75207C20.0585 6.20855 18.2922 4.44227 16.7486 5.38279C16.5169 5.52418 16.2551 5.60886 15.9845 5.62992C15.7139 5.65098 15.4421 5.60784 15.1914 5.504C14.9406 5.40016 14.7179 5.23856 14.5414 5.03236C14.3649 4.82616 14.2396 4.58119 14.1757 4.3174L14.1768 4.31627Z" stroke="white" stroke-width="2"/>
<path d="M14.5005 12C14.5005 13.1046 13.6051 14 12.5005 14C11.3959 14 10.5005 13.1046 10.5005 12C10.5005 10.8954 11.3959 10 12.5005 10C13.6051 10 14.5005 10.8954 14.5005 12Z" stroke="white" stroke-width="2"/>
</svg>
