<svg width="49" height="53" viewBox="0 0 49 53" fill="none" xmlns="http://www.w3.org/2000/svg">
<path d="M40.1592 52.872L4.38422 49.9076C1.99265 49.754 0.227718 47.7035 0.434297 45.3188C0.557505 44.1646 1.13786 43.0945 2.04643 42.3464C2.95499 41.5983 4.11652 41.2341 5.27294 41.3347L30.657 43.3454L1.64916 8.11576C0.142051 6.28539 0.445885 3.54543 2.32779 1.99588C4.2097 0.446336 6.95704 0.673987 8.46415 2.50436L37.472 37.734L40.2679 12.5201C40.6927 10.2809 42.7703 8.69718 45.0369 8.88499C47.3035 9.0728 48.9953 10.9688 48.9202 13.2371L44.9638 48.916C44.6928 51.2953 42.5463 53.0627 40.1592 52.872Z" fill="black"/>
</svg>
